<svg width="924" height="176" viewBox="0 0 924 176" fill="none" xmlns="http://www.w3.org/2000/svg">
<path d="M356.639 42.6421C369.735 42.6421 380.873 47.2931 390.053 56.5952C399.355 65.8973 404.006 77.2801 404.006 90.7436C404.006 104.207 399.355 115.59 390.053 124.892C380.873 134.194 369.735 138.845 356.639 138.845C340.36 138.845 327.998 132.113 319.553 118.65V136.642H307.436V2.38916H319.553V62.8374C327.998 49.3738 340.36 42.6421 356.639 42.6421ZM330.018 116.63C336.994 123.607 345.562 127.095 355.721 127.095C365.88 127.095 374.447 123.607 381.424 116.63C388.4 109.531 391.889 100.902 391.889 90.7436C391.889 80.5848 388.4 72.017 381.424 65.0405C374.447 57.9415 365.88 54.3921 355.721 54.3921C345.562 54.3921 336.994 57.9415 330.018 65.0405C323.041 72.017 319.553 80.5848 319.553 90.7436C319.553 100.902 323.041 109.531 330.018 116.63Z" fill="#A7FF85"/>
<path d="M436.162 17.0767C434.449 18.7902 432.368 19.647 429.92 19.647C427.472 19.647 425.392 18.7902 423.678 17.0767C421.964 15.3631 421.108 13.2824 421.108 10.8345C421.108 8.38655 421.964 6.30582 423.678 4.59228C425.392 2.87874 427.472 2.02197 429.92 2.02197C432.368 2.02197 434.449 2.87874 436.162 4.59228C437.876 6.30582 438.733 8.38655 438.733 10.8345C438.733 13.2824 437.876 15.3631 436.162 17.0767ZM423.862 136.642V44.8452H435.979V136.642H423.862Z" fill="#A7FF85"/>
<path d="M510.636 56.5952H484.199V112.224C484.199 117.242 485.178 120.853 487.136 123.056C489.095 125.137 492.032 126.238 495.949 126.361C499.866 126.361 504.761 126.238 510.636 125.994V136.642C497.785 138.6 488.116 137.682 481.629 133.888C475.264 130.094 472.082 122.872 472.082 112.224V56.5952H452.804V44.8452H472.082V22.814L484.199 22.8113V44.8452H510.636V56.5952Z" fill="#A7FF85"/>
<path d="M543.132 17.0767C541.419 18.7902 539.338 19.647 536.89 19.647C534.442 19.647 532.362 18.7902 530.648 17.0767C528.935 15.3631 528.078 13.2824 528.078 10.8345C528.078 8.38655 528.935 6.30582 530.648 4.59228C532.362 2.87874 534.442 2.02197 536.89 2.02197C539.338 2.02197 541.419 2.87874 543.132 4.59228C544.846 6.30582 545.703 8.38655 545.703 10.8345C545.703 13.2824 544.846 15.3631 543.132 17.0767ZM530.832 136.642V44.8452H542.949V136.642H530.832Z" fill="#A7FF85"/>
<path d="M647.607 44.8452H659.724V132.97C659.724 146.189 655.196 156.593 646.139 164.181C637.081 171.77 626.249 175.564 613.642 175.564C592.101 175.564 577.597 168.098 570.131 153.165L580.779 147.107C586.287 158.245 597.241 163.814 613.642 163.814C624.169 163.814 632.43 160.999 638.428 155.369C644.547 149.861 647.607 142.395 647.607 132.97V118.65C639.162 132.113 626.8 138.845 610.521 138.845C597.425 138.845 586.226 134.194 576.924 124.892C567.744 115.59 563.154 104.207 563.154 90.7436C563.154 77.2801 567.744 65.8973 576.924 56.5952C586.226 47.2931 597.425 42.6421 610.521 42.6421C626.8 42.6421 639.162 49.3738 647.607 62.8374V44.8452ZM585.736 116.63C592.713 123.607 601.28 127.095 611.439 127.095C621.598 127.095 630.166 123.607 637.142 116.63C644.119 109.531 647.607 100.902 647.607 90.7436C647.607 80.5848 644.119 72.017 637.142 65.0405C630.166 57.9415 621.598 54.3921 611.439 54.3921C601.28 54.3921 592.713 57.9415 585.736 65.0405C578.76 72.017 575.271 80.5848 575.271 90.7436C575.271 100.902 578.76 109.531 585.736 116.63Z" fill="#A7FF85"/>
<path d="M679.643 136.642V2.61865H691.76V136.642H679.643Z" fill="#A7FF85"/>
<path d="M794.399 125.076C785.097 134.255 773.714 138.845 760.251 138.845C746.787 138.845 735.343 134.255 725.919 125.076C716.617 115.774 711.965 104.33 711.965 90.7436C711.965 77.1577 716.617 65.7749 725.919 56.5952C735.343 47.2931 746.787 42.6421 760.251 42.6421C773.714 42.6421 785.097 47.2931 794.399 56.5952C803.823 65.7749 808.536 77.1577 808.536 90.7436C808.536 104.33 803.823 115.774 794.399 125.076ZM734.547 116.63C741.524 123.607 750.092 127.095 760.251 127.095C770.409 127.095 778.977 123.607 785.954 116.63C792.93 109.531 796.419 100.902 796.419 90.7436C796.419 80.5848 792.93 72.017 785.954 65.0405C778.977 57.9415 770.409 54.3921 760.251 54.3921C750.092 54.3921 741.524 57.9415 734.547 65.0405C727.571 72.017 724.083 80.5848 724.083 90.7436C724.083 100.902 727.571 109.531 734.547 116.63Z" fill="#A7FF85"/>
<path d="M909.563 125.076C900.261 134.255 888.879 138.845 875.415 138.845C861.951 138.845 850.507 134.255 841.083 125.076C831.781 115.774 827.13 104.33 827.13 90.7436C827.13 77.1577 831.781 65.7749 841.083 56.5952C850.507 47.2931 861.951 42.6421 875.415 42.6421C888.879 42.6421 900.261 47.2931 909.563 56.5952C918.988 65.7749 923.7 77.1577 923.7 90.7436C923.7 104.33 918.988 115.774 909.563 125.076ZM849.712 116.63C856.688 123.607 865.256 127.095 875.415 127.095C885.574 127.095 894.142 123.607 901.118 116.63C908.095 109.531 911.583 100.902 911.583 90.7436C911.583 80.5848 908.095 72.017 901.118 65.0405C894.142 57.9415 885.574 54.3921 875.415 54.3921C865.256 54.3921 856.688 57.9415 849.712 65.0405C842.735 72.017 839.247 80.5848 839.247 90.7436C839.247 100.902 842.735 109.531 849.712 116.63Z" fill="#A7FF85"/>
<g clip-path="url(#clip0_76_1373)">
<path d="M209.895 134.247V137H201.658V134.247C201.658 77.7233 154.52 31.7308 96.593 31.7308H95.2065L33.4219 31.7446C36.2222 28.84 39.1734 26.073 42.262 23.4712H96.593C159.064 23.4712 209.895 73.1667 209.895 134.247Z" fill="#A7FF85"/>
<path d="M233.298 134.247V137H225.062V134.247C225.062 64.7832 167.437 8.25965 96.5924 8.25965H65.2402C71.9939 4.83189 79.1318 2.06491 86.5581 0H96.5924C171.967 0 233.298 60.2266 233.298 134.247Z" fill="#A7FF85"/>
<path d="M186.476 134.247V137H154.822V134.247C154.822 103.604 128.7 78.687 96.5929 78.687H92.4611C60.3539 78.687 34.2317 103.604 34.2317 134.247V137H2.55004C1.06753 129.525 0.298828 121.802 0.298828 113.887C0.298828 89.0391 7.9447 65.9671 21.0127 46.9424H95.2064H96.5929C146.147 46.9424 186.476 86.0931 186.476 134.233V134.247Z" fill="#A7FF85"/>
</g>
<defs>
<clipPath id="clip0_76_1373">
<rect width="233" height="137" fill="white" transform="translate(0.298828)"/>
</clipPath>
</defs>
</svg>
